<svg width="178" height="35" viewBox="0 0 178 35" fill="none" xmlns="http://www.w3.org/2000/svg">
<g id="suzuki-logo 1" clip-path="url(#clip0_6_36)">
<path id="Vector" d="M12.5746 8.20445L19.8694 13.2554C21.5197 14.4952 23.5332 15.1497 25.5941 15.1163C29.6268 15.1163 33.2729 12.3968 33.2729 12.3968L16.6337 0.851318C16.6337 0.851318 14.8199 2.85841 9.11646 6.43396C3.12965 10.169 -0.00805664 11.2563 -0.00805664 11.2563L21.5482 26.2045L20.5896 26.8372L13.4033 21.8527C11.7512 20.6107 9.73437 19.956 7.67073 19.9918C3.64599 19.9918 -0.00805664 22.7193 -0.00805664 22.7193L16.639 34.2648C16.639 34.2648 18.4581 32.2603 24.1563 28.6821C30.1431 24.9364 33.2808 23.8491 33.2808 23.8491L11.616 8.82652L12.5746 8.20445Z" fill="#DF013A"/>
<path id="Vector_2" d="M55.2395 15.1376C52.078 14.7282 49.2607 14.6458 49.1892 13.492C49.0939 12.0379 51.4028 11.897 52.1548 11.897C53.4125 11.897 55.4487 12.1867 55.9227 14.0875H64.0013C64.0013 10.4349 60.5591 7.54518 52.1839 7.52125C42.8873 7.49733 41.2986 11.6125 41.2986 13.9546C41.2986 18.2931 44.6508 19.5744 51.9138 20.3347C54.612 20.6192 56.3278 20.6006 56.3278 21.959C56.3278 23.3175 54.2757 23.4876 53.4152 23.4876C52.6208 23.4876 50.386 23.4876 49.6552 21.2147H40.8855C41.2668 25.4681 43.9464 27.9803 53.4072 27.9537C62.3173 27.9271 64.65 24.3011 64.65 21.5257C64.65 18.8434 62.8204 16.1105 55.2395 15.1376Z" fill="#003790"/>
<path id="Vector_3" d="M91.0622 13.0055H101.736L90.6915 23.3653V27.4938H113.124V22.5466H101.963L113.159 12.2107V8.07687H91.0622V13.0055Z" fill="#003790"/>
<path id="Vector_4" d="M173.702 8.07687H166.404V27.4938H173.702V8.07687Z" fill="#003790"/>
<path id="Vector_5" d="M155.347 8.07687L147.581 14.7681V8.07687H140.275V27.4938H147.581V20.6112L154.791 27.4938H164.612L153.93 17.5408L164.961 8.07687H155.347Z" fill="#003790"/>
<path id="Vector_6" d="M81.6464 16.2222V19.2794C81.6464 21.6719 80.7859 23.251 77.5528 23.251C74.3198 23.251 73.4592 21.656 73.4592 19.2794V8.07687H66.453V15.1509C66.453 16.084 66.4715 19.2156 66.4901 20.9701C66.5139 23.4664 67.1282 28.2355 77.5449 28.2355C87.9616 28.2355 88.5732 23.4664 88.5997 20.9701C88.6182 19.2156 88.6368 16.084 88.6368 15.1509V8.07687H81.6464V16.2222Z" fill="#003790"/>
<path id="Vector_7" d="M130.767 16.2222V19.2794C130.767 21.6719 129.904 23.251 126.671 23.251C123.438 23.251 122.588 21.6666 122.588 19.2794V8.07687H115.579V15.1509C115.579 16.084 115.597 19.2156 115.616 20.9701C115.642 23.4664 116.254 28.2355 126.671 28.2355C137.087 28.2355 137.702 23.4664 137.725 20.9701C137.744 19.2156 137.765 16.084 137.765 15.1509V8.07687H130.767V16.2222Z" fill="#003790"/>
<path id="Vector_8" d="M176.215 26.1327C176.368 26.1327 176.48 26.0982 176.48 25.9254C176.48 25.7526 176.284 25.7419 176.151 25.7419H175.81V26.1327H176.215ZM176.702 26.9302H176.387L176.074 26.3401H175.81V26.9196H175.545V25.5426H176.212C176.339 25.5337 176.466 25.5556 176.583 25.6064C176.639 25.6465 176.684 25.7008 176.713 25.7638C176.741 25.8268 176.753 25.8962 176.747 25.9652C176.747 26.2311 176.615 26.3241 176.371 26.3401L176.702 26.9302ZM177.102 26.2391C177.101 26.0335 177.04 25.8327 176.926 25.662C176.812 25.4914 176.65 25.3586 176.46 25.2804C176.271 25.2022 176.063 25.1822 175.862 25.2228C175.661 25.2634 175.477 25.3629 175.333 25.5086C175.188 25.6543 175.09 25.8398 175.051 26.0415C175.011 26.2433 175.032 26.4522 175.111 26.6419C175.19 26.8317 175.323 26.9937 175.494 27.1074C175.664 27.2212 175.864 27.2817 176.069 27.2811C176.205 27.2815 176.34 27.2548 176.466 27.2024C176.592 27.1501 176.706 27.0733 176.802 26.9764C176.898 26.8795 176.974 26.7644 177.025 26.6379C177.077 26.5113 177.103 26.3757 177.102 26.2391ZM174.79 26.2391C174.79 25.9856 174.864 25.7377 175.004 25.5267C175.144 25.3157 175.343 25.1511 175.576 25.0536C175.809 24.9561 176.065 24.9302 176.313 24.9792C176.561 25.0281 176.788 25.1496 176.967 25.3285C177.146 25.5073 177.268 25.7354 177.318 25.9838C177.368 26.2323 177.343 26.49 177.247 26.7243C177.151 26.9586 176.987 27.1591 176.778 27.3003C176.568 27.4416 176.322 27.5172 176.069 27.5177C175.902 27.5181 175.736 27.4853 175.581 27.4212C175.426 27.3572 175.285 27.2631 175.166 27.1443C175.047 27.0256 174.953 26.8845 174.888 26.7292C174.824 26.5739 174.791 26.4073 174.79 26.2391Z" fill="#003790"/>
</g>
<defs>
<clipPath id="clip0_6_36">
<rect width="177.348" height="33.4134" fill="white" transform="translate(-0.00805664 0.851318)"/>
</clipPath>
</defs>
</svg>
